<svg width="10" height="18" viewBox="0 0 10 18" fill="none" xmlns="http://www.w3.org/2000/svg">
<path d="M9.44228 0.0037452L7.10808 0C4.48569 0 2.79099 1.73871 2.79099 4.42982V6.47227H0.444056C0.241254 6.47227 0.0770264 6.63668 0.0770264 6.83949V9.79876C0.0770264 10.0016 0.241441 10.1658 0.444056 10.1658H2.79099V17.633C2.79099 17.8358 2.95521 18 3.15802 18H6.22009C6.4229 18 6.58712 17.8356 6.58712 17.633V10.1658H9.33123C9.53403 10.1658 9.69826 10.0016 9.69826 9.79876L9.69938 6.83949C9.69938 6.74211 9.66062 6.64886 9.5919 6.57994C9.52317 6.51103 9.42954 6.47227 9.33217 6.47227H6.58712V4.74086C6.58712 3.90868 6.78543 3.48622 7.86948 3.48622L9.4419 3.48566C9.64452 3.48566 9.80874 3.32124 9.80874 3.11863V0.370775C9.80874 0.168347 9.6447 0.00411972 9.44228 0.0037452Z" fill="black"/>
</svg>
