<svg width="34" height="34" viewBox="0 0 34 34" fill="none" xmlns="http://www.w3.org/2000/svg">
<mask id="path-1-inside-1" fill="white">
<path fill-rule="evenodd" clip-rule="evenodd" d="M24.617 1.07604e-06L9.38257 4.10125e-07C4.20902 1.83983e-07 -1.83991e-07 4.20922 -4.10134e-07 9.38277L-1.07605e-06 24.6172C-1.3022e-06 29.791 4.20902 34 9.38257 34L24.617 34C29.791 34 34 29.7908 34 24.6172L34 9.38277C34.0002 4.20923 29.791 1.3022e-06 24.617 1.07604e-06ZM26.1283 5.68058C25.5471 5.68058 24.9761 5.91588 24.5657 6.32815C24.1532 6.73842 23.9161 7.30957 23.9161 7.89279C23.9161 8.47419 24.1534 9.04514 24.5657 9.45742C24.9759 9.86768 25.5471 10.105 26.1283 10.105C26.7115 10.105 27.2807 9.86768 27.6929 9.45742C28.1052 9.04514 28.3405 8.47399 28.3405 7.89279C28.3405 7.30957 28.1052 6.73842 27.6929 6.32815C27.2827 5.91588 26.7115 5.68058 26.1283 5.68058ZM8.23903 17.0067C8.23903 12.1758 12.1691 8.24576 17 8.24576C21.8308 8.24576 25.7609 12.1758 25.7609 17.0067C25.7609 21.8374 21.8308 25.7672 17 25.7672C12.1691 25.7672 8.23903 21.8374 8.23903 17.0067ZM11.2557 17.0065C11.2557 20.1738 13.8327 22.7504 17 22.7504C20.1672 22.7504 22.7443 20.1738 22.7443 17.0065C22.7443 13.839 20.1674 11.2622 17 11.2622C13.8325 11.2622 11.2557 13.839 11.2557 17.0065Z"/>
</mask>
<path fill-rule="evenodd" clip-rule="evenodd" d="M24.617 1.07604e-06L9.38257 4.10125e-07C4.20902 1.83983e-07 -1.83991e-07 4.20922 -4.10134e-07 9.38277L-1.07605e-06 24.6172C-1.3022e-06 29.791 4.20902 34 9.38257 34L24.617 34C29.791 34 34 29.7908 34 24.6172L34 9.38277C34.0002 4.20923 29.791 1.3022e-06 24.617 1.07604e-06ZM26.1283 5.68058C25.5471 5.68058 24.9761 5.91588 24.5657 6.32815C24.1532 6.73842 23.9161 7.30957 23.9161 7.89279C23.9161 8.47419 24.1534 9.04514 24.5657 9.45742C24.9759 9.86768 25.5471 10.105 26.1283 10.105C26.7115 10.105 27.2807 9.86768 27.6929 9.45742C28.1052 9.04514 28.3405 8.47399 28.3405 7.89279C28.3405 7.30957 28.1052 6.73842 27.6929 6.32815C27.2827 5.91588 26.7115 5.68058 26.1283 5.68058ZM8.23903 17.0067C8.23903 12.1758 12.1691 8.24576 17 8.24576C21.8308 8.24576 25.7609 12.1758 25.7609 17.0067C25.7609 21.8374 21.8308 25.7672 17 25.7672C12.1691 25.7672 8.23903 21.8374 8.23903 17.0067ZM11.2557 17.0065C11.2557 20.1738 13.8327 22.7504 17 22.7504C20.1672 22.7504 22.7443 20.1738 22.7443 17.0065C22.7443 13.839 20.1674 11.2622 17 11.2622C13.8325 11.2622 11.2557 13.839 11.2557 17.0065Z" fill="#222222"/>
<path d="M9.38257 4.10125e-07L9.38257 1L9.38257 4.10125e-07ZM24.617 1.07604e-06L24.617 -0.999999L24.617 1.07604e-06ZM-4.10134e-07 9.38277L-1 9.38277L-4.10134e-07 9.38277ZM-1.07605e-06 24.6172L0.999999 24.6172L-1.07605e-06 24.6172ZM34 24.6172L35 24.6172L34 24.6172ZM34 9.38277L33 9.38273L33 9.38277L34 9.38277ZM24.5657 6.32815L25.2709 7.03717L25.2743 7.0337L24.5657 6.32815ZM24.5657 9.45742L23.8586 10.1645L23.8586 10.1645L24.5657 9.45742ZM27.6929 9.45742L28.3983 10.1663L28.4 10.1645L27.6929 9.45742ZM27.6929 6.32815L26.9841 7.03354L26.9876 7.03699L27.6929 6.32815ZM9.38257 1L24.617 1L24.617 -0.999999L9.38257 -1L9.38257 1ZM1 9.38277C1 4.76148 4.76134 1 9.38257 1L9.38257 -1C3.65671 -1 -1 3.65697 -1 9.38277L1 9.38277ZM0.999999 24.6172L1 9.38277L-1 9.38277L-1 24.6172L0.999999 24.6172ZM9.38257 33C4.76132 33 0.999999 29.2387 0.999999 24.6172L-1 24.6172C-1 30.3432 3.65672 35 9.38257 35L9.38257 33ZM24.617 33L9.38257 33L9.38257 35L24.617 35L24.617 33ZM33 24.6172C33 29.2385 29.2387 33 24.617 33L24.617 35C30.3433 35 35 30.3431 35 24.6172L33 24.6172ZM33 9.38277L33 24.6172L35 24.6172L35 9.38277L33 9.38277ZM24.617 1C29.2387 1 33.0002 4.76154 33 9.38273L35 9.38281C35.0002 3.65691 30.3432 -0.999999 24.617 -0.999999L24.617 1ZM25.2743 7.0337C25.4957 6.8114 25.811 6.68058 26.1283 6.68058L26.1283 4.68058C25.2832 4.68058 24.4566 5.02036 23.857 5.6226L25.2743 7.0337ZM24.9161 7.89279C24.9161 7.57494 25.0477 7.25919 25.2709 7.03716L23.8605 5.61915C23.2587 6.21765 22.9161 7.04419 22.9161 7.89279L24.9161 7.89279ZM25.2728 8.75031C25.0471 8.52463 24.9161 8.20765 24.9161 7.89279L22.9161 7.89279C22.9161 8.74074 23.2597 9.56566 23.8586 10.1645L25.2728 8.75031ZM26.1283 9.10499C25.8129 9.10499 25.4959 8.97347 25.2728 8.75031L23.8586 10.1645C24.4559 10.7619 25.2813 11.105 26.1283 11.105L26.1283 9.10499ZM26.9876 8.74858C26.761 8.97404 26.4448 9.10499 26.1283 9.10499L26.1283 11.105C26.9783 11.105 27.8003 10.7613 28.3983 10.1663L26.9876 8.74858ZM27.3405 7.89279C27.3405 8.20982 27.2098 8.52631 26.9858 8.75031L28.4 10.1645C29.0006 9.56398 29.3405 8.73817 29.3405 7.89279L27.3405 7.89279ZM26.9876 7.03699C27.2093 7.2576 27.3405 7.57282 27.3405 7.89279L29.3405 7.89279C29.3405 7.04631 29.0012 6.21923 28.3983 5.61932L26.9876 7.03699ZM26.1283 6.68058C26.4483 6.68058 26.7635 6.81183 26.9841 7.03353L28.4018 5.62278C27.8019 5.01993 26.9748 4.68058 26.1283 4.68058L26.1283 6.68058ZM17 7.24576C11.6168 7.24576 7.23903 11.6236 7.23903 17.0067L9.23903 17.0067C9.23903 12.7281 12.7214 9.24576 17 9.24576L17 7.24576ZM26.7609 17.0067C26.7609 11.6236 22.3831 7.24576 17 7.24576L17 9.24576C21.2785 9.24576 24.7609 12.7281 24.7609 17.0067L26.7609 17.0067ZM17 26.7672C22.3831 26.7672 26.7609 22.3897 26.7609 17.0067L24.7609 17.0067C24.7609 21.285 21.2786 24.7672 17 24.7672L17 26.7672ZM7.23903 17.0067C7.23903 22.3897 11.6169 26.7672 17 26.7672L17 24.7672C12.7214 24.7672 9.23903 21.285 9.23903 17.0067L7.23903 17.0067ZM17 21.7504C14.3849 21.7504 12.2557 19.6214 12.2557 17.0065L10.2557 17.0065C10.2557 20.7261 13.2805 23.7504 17 23.7504L17 21.7504ZM21.7443 17.0065C21.7443 19.6214 19.6151 21.7504 17 21.7504L17 23.7504C20.7194 23.7504 23.7443 20.7261 23.7443 17.0065L21.7443 17.0065ZM17 12.2622C19.6152 12.2622 21.7443 14.3913 21.7443 17.0065L23.7443 17.0065C23.7443 13.2867 20.7197 10.2622 17 10.2622L17 12.2622ZM12.2557 17.0065C12.2557 14.3913 14.3848 12.2622 17 12.2622L17 10.2622C13.2802 10.2622 10.2557 13.2867 10.2557 17.0065L12.2557 17.0065Z" fill="#222222" fill-opacity="0.2" mask="url(#path-1-inside-1)"/>
</svg>
