<svg width="129" height="40" viewBox="0 0 129 40" fill="none" xmlns="http://www.w3.org/2000/svg">
<path d="M49.6558 9.94855H64.6823V13.8594H53.9589V17.9074H63.3163V21.9554H53.9589V26.2093H64.7506V30.1201H49.6558V9.94855Z" fill="#393738"/>
<path d="M71.0344 9.94855H80.1186C82.6458 9.94855 84.6266 10.6347 85.9243 12.0069C87.0172 13.1046 87.6319 14.6827 87.6319 16.6724C87.6319 19.8971 85.9243 21.9554 83.3972 22.916L88.2466 30.1201H83.1239L78.8209 23.6707H75.4741V30.1201H71.0344V9.94855ZM79.8454 19.7599C81.9628 19.7599 83.1923 18.5935 83.1923 16.8782C83.1923 14.9571 81.8945 13.9966 79.7771 13.9966H75.4058V19.7599H79.8454Z" fill="#393738"/>
<path d="M97.1943 14.0652H91.1154V10.0172H107.576V14.0652H101.497V30.1201H97.126V14.0652H97.1943Z" fill="#393738"/>
<path d="M110.445 20.0343C110.445 14.3396 114.68 9.6055 120.827 9.6055C124.584 9.6055 126.701 11.0463 128.545 12.8988L125.95 15.9177C124.447 14.4769 123.081 13.6535 120.827 13.6535C117.48 13.6535 115.089 16.4666 115.089 19.9657C115.089 23.3962 117.48 26.2779 120.827 26.2779C123.081 26.2779 124.515 25.386 126.018 23.9451L128.818 26.964C126.769 29.1595 124.515 30.3945 120.69 30.3945C114.748 30.4631 110.445 25.8662 110.445 20.0343Z" fill="#393738"/>
<path d="M19.9443 40.0686C30.9592 40.0686 39.8886 31.0989 39.8886 20.0343C39.8886 8.96966 30.9592 0 19.9443 0C8.92937 0 0 8.96966 0 20.0343C0 31.0989 8.92937 40.0686 19.9443 40.0686Z" fill="#D8EBBA"/>
<path d="M39.8203 20.0343C39.8203 17.4271 39.3422 14.8885 38.3859 12.6244C32.307 16.0549 28.7553 24.4254 19.876 23.5335C11.6797 22.6415 4.16645 21.1321 0 21.4751C0.683024 31.904 9.35743 40.1372 19.876 40.1372C30.941 40 39.8203 31.0806 39.8203 20.0343Z" fill="#ADD47D"/>
<path d="M39.4793 23.8765C28.8241 30.6003 8.67492 20.8576 0.0688171 21.4065C0.751841 31.8353 9.42624 40.0686 19.9448 40.0686C29.6438 40 37.7034 33.0703 39.4793 23.8765Z" fill="#8DC045"/>
<path d="M37.7712 28.9537C32.3071 30.3259 26.0915 28.1304 19.9443 28.1304C15.1632 28.1304 8.19631 29.0223 2.73212 30.1887C6.21554 36.0892 12.5677 40.0686 19.876 40.0686C27.7308 40 34.4927 35.5403 37.7712 28.9537Z" fill="#627E51"/>
</svg>
