<svg width="13" height="16" viewBox="0 0 13 16" fill="none" xmlns="http://www.w3.org/2000/svg">
<path d="M11.1256 1.63959C10.0242 0.582308 8.50008 0 6.83392 0C4.28877 0 2.72339 1.04329 1.85839 1.91846C0.79234 2.997 0.18103 4.42908 0.18103 5.84759C0.18103 7.62863 0.925997 8.99564 2.17354 9.5042C2.2573 9.53852 2.34157 9.55581 2.42419 9.55581C2.68737 9.55581 2.89591 9.3836 2.96815 9.10736C3.01026 8.94888 3.10785 8.55793 3.15027 8.3882C3.24109 8.05303 3.16771 7.89181 2.96965 7.6584C2.60883 7.23148 2.4408 6.72663 2.4408 6.0696C2.4408 4.11801 3.89399 2.04386 6.58735 2.04386C8.72441 2.04386 10.0519 3.25848 10.0519 5.21368C10.0519 6.4475 9.78617 7.59013 9.30346 8.43124C8.96803 9.01566 8.37819 9.71233 7.47268 9.71233C7.0811 9.71233 6.72937 9.55147 6.50741 9.27105C6.29774 9.00596 6.22864 8.66351 6.31297 8.30661C6.40823 7.90337 6.53812 7.48274 6.66383 7.0761C6.89311 6.3334 7.10985 5.63194 7.10985 5.07228C7.10985 4.11502 6.52135 3.47181 5.64556 3.47181C4.53255 3.47181 3.66058 4.60227 3.66058 6.04539C3.66058 6.75315 3.84868 7.28252 3.93383 7.48579C3.79362 8.07986 2.96031 11.6117 2.80224 12.2778C2.71085 12.6665 2.16028 15.7373 3.07157 15.9821C4.09546 16.2573 5.01067 13.2666 5.10382 12.9286C5.17931 12.6537 5.44348 11.6145 5.60536 10.9756C6.09963 11.4517 6.89548 11.7736 7.66986 11.7736C9.12971 11.7736 10.4426 11.1166 11.3667 9.9239C12.2629 8.76703 12.7565 7.15459 12.7565 5.38382C12.7565 3.99947 12.162 2.63473 11.1256 1.63959Z" fill="black"/>
</svg>
