<svg width="19" height="16" viewBox="0 0 19 16" fill="none" xmlns="http://www.w3.org/2000/svg">
<path d="M17 2.65739C16.405 2.93846 15.771 3.12477 15.11 3.21523C15.79 2.778 16.309 2.09092 16.553 1.26277C15.919 1.66985 15.219 1.95739 14.473 2.11785C13.871 1.42754 13.013 1 12.077 1C10.261 1 8.799 2.58738 8.799 4.53338C8.799 4.81338 8.821 5.08262 8.875 5.33892C6.148 5.19569 3.735 3.78815 2.114 1.644C1.831 2.17277 1.665 2.778 1.665 3.42954C1.665 4.65292 2.25 5.73738 3.122 6.36523C2.595 6.35446 2.078 6.18969 1.64 5.93015C1.64 5.94092 1.64 5.95492 1.64 5.96892C1.64 7.68554 2.777 9.11138 4.268 9.43985C4.001 9.51846 3.71 9.55615 3.408 9.55615C3.198 9.55615 2.986 9.54323 2.787 9.49585C3.212 10.8948 4.418 11.9232 5.852 11.9566C4.736 12.8968 3.319 13.4632 1.785 13.4632C1.516 13.4632 1.258 13.4503 0.999999 13.4148C2.453 14.4238 4.175 15 6.032 15C12.068 15 15.368 9.61538 15.368 4.948C15.368 4.79185 15.363 4.64108 15.356 4.49139C16.007 3.99385 16.554 3.37246 17 2.65739Z" fill="#222222" stroke="#222222" stroke-opacity="0.2"/>
</svg>
