<svg width="16" height="12" viewBox="0 0 16 12" fill="none" xmlns="http://www.w3.org/2000/svg">
<path fill-rule="evenodd" clip-rule="evenodd" d="M11.6961 3.86838e-06C13.7325 2.63457e-06 14.7988 0.298454 15.3764 1.03012C15.9566 1.76502 16 2.89068 16 4.52402L16 7.47603C16 9.34771 15.723 10.4288 15.0738 11.0909C14.4407 11.7366 13.4621 12 11.6961 12L4.30379 12C0.6656 12 -6.05228e-08 10.4766 -4.31888e-08 7.47603L-2.61352e-08 4.52403C-1.71878e-08 2.97522 -1.0723e-08 1.85617 0.560981 1.09667C1.13636 0.317708 2.22075 5.50288e-06 4.30379 5.23815e-06L11.6961 3.86838e-06ZM6.91536 8.27653L10.2722 6.40689C10.4427 6.31195 10.5495 6.12378 10.5493 5.91862C10.549 5.71362 10.4418 5.52572 10.271 5.43123L6.91417 3.57363C6.75422 3.48508 6.56248 3.4919 6.40831 3.59168C6.25419 3.69145 6.16016 3.86967 6.16016 4.06174L6.16016 7.78903C6.16016 7.98143 6.25445 8.15981 6.40888 8.25953C6.49089 8.31245 6.58349 8.33907 6.67629 8.33907C6.75825 8.33907 6.84031 8.31833 6.91536 8.27653Z" fill="#222222"/>
</svg>
